<?xml version="1.0" encoding="UTF-8" standalone="no"?>
<!-- Created with Inkscape (http://www.inkscape.org/) -->

<svg
   width="7.2274313mm"
   height="9.9255619mm"
   viewBox="0 0 7.2274313 9.9255619"
   version="1.1"
   id="svg1"
   inkscape:version="1.4 (1:1.4+202410161351+e7c3feb100)"
   sodipodi:docname="BackIcon.svg"
   xmlns:inkscape="http://www.inkscape.org/namespaces/inkscape"
   xmlns:sodipodi="http://sodipodi.sourceforge.net/DTD/sodipodi-0.dtd"
   xmlns="http://www.w3.org/2000/svg"
   xmlns:svg="http://www.w3.org/2000/svg">
  <sodipodi:namedview
     id="namedview1"
     pagecolor="#ffffff"
     bordercolor="#000000"
     borderopacity="0.25"
     inkscape:showpageshadow="2"
     inkscape:pageopacity="0.0"
     inkscape:pagecheckerboard="true"
     inkscape:deskcolor="#d1d1d1"
     inkscape:document-units="mm"
     inkscape:zoom="0.77949635"
     inkscape:cx="12.828796"
     inkscape:cy="18.601755"
     inkscape:window-width="1982"
     inkscape:window-height="1083"
     inkscape:window-x="0"
     inkscape:window-y="0"
     inkscape:window-maximized="1"
     inkscape:current-layer="layer1" />
  <defs
     id="defs1" />
  <g
     inkscape:label="Layer 1"
     inkscape:groupmode="layer"
     id="layer1"
     transform="translate(-101.33542,-143.6688)">
    <path
       style="fill:#b4c0c9;fill-opacity:1;stroke-linecap:round"
       d="m 107.37445,143.81026 c 0,0 -1.43318,1.03073 -2.86719,2.07421 -0.717,0.52175 -1.43357,1.04703 -1.9746,1.44922 -0.27052,0.2011 -0.49579,0.3707 -0.66016,0.49805 -0.0822,0.0637 -0.14898,0.11512 -0.20508,0.16211 -0.0281,0.0235 -0.0516,0.0451 -0.0859,0.0781 -0.0172,0.0165 -0.0353,0.0336 -0.0703,0.0762 -0.0175,0.0213 -0.0395,0.0473 -0.0723,0.10351 -0.0164,0.0281 -0.0565,0.11867 -0.0566,0.11915 -1.7e-4,4.7e-4 -0.0469,0.26136 -0.0469,0.26171 0,3.6e-4 0.0467,0.2593 0.0469,0.25977 1.8e-4,4.7e-4 0.0403,0.091 0.0566,0.11914 0.0327,0.0562 0.0547,0.0823 0.0723,0.10352 0.035,0.0425 0.0532,0.0597 0.0703,0.0762 0.0343,0.033 0.0579,0.0546 0.0859,0.0781 0.0561,0.047 0.12289,0.0984 0.20508,0.16211 0.16437,0.12735 0.38964,0.29695 0.66016,0.49804 0.54103,0.40219 1.2576,0.92748 1.9746,1.44922 1.43401,1.04349 2.86719,2.07422 2.86719,2.07422 a 0.75,0.75 0 0 0 1.04688,-0.16992 0.75,0.75 0 0 0 -0.16992,-1.04688 c 0,0 -1.43148,-1.02984 -2.86133,-2.07031 -0.71493,-0.52023 -1.42998,-1.0433 -1.96289,-1.43945 -0.0526,-0.0391 -0.0761,-0.0592 -0.125,-0.0957 0.0485,-0.0363 0.0728,-0.055 0.125,-0.0937 0.53291,-0.39616 1.24796,-0.91922 1.96289,-1.43946 1.42985,-1.04046 2.86133,-2.07031 2.86133,-2.07031 a 0.75,0.75 0 0 0 0.16992,-1.04687 0.75,0.75 0 0 0 -1.04688,-0.16992 z"
       id="path32" />
  </g>
</svg>
