<?xml version="1.0" encoding="UTF-8" standalone="no"?>
<!-- Created with Inkscape (http://www.inkscape.org/) -->

<svg
   width="7.2267561mm"
   height="9.9255524mm"
   viewBox="0 0 7.2267561 9.9255524"
   version="1.1"
   id="svg1"
   inkscape:version="1.4 (1:1.4+202410161351+e7c3feb100)"
   sodipodi:docname="ForwardIcon.svg"
   xmlns:inkscape="http://www.inkscape.org/namespaces/inkscape"
   xmlns:sodipodi="http://sodipodi.sourceforge.net/DTD/sodipodi-0.dtd"
   xmlns="http://www.w3.org/2000/svg"
   xmlns:svg="http://www.w3.org/2000/svg">
  <sodipodi:namedview
     id="namedview1"
     pagecolor="#ffffff"
     bordercolor="#000000"
     borderopacity="0.25"
     inkscape:showpageshadow="2"
     inkscape:pageopacity="0.0"
     inkscape:pagecheckerboard="true"
     inkscape:deskcolor="#d1d1d1"
     inkscape:document-units="mm"
     inkscape:zoom="0.77949635"
     inkscape:cx="102.63037"
     inkscape:cy="146.88972"
     inkscape:window-width="1982"
     inkscape:window-height="1083"
     inkscape:window-x="0"
     inkscape:window-y="0"
     inkscape:window-maximized="1"
     inkscape:current-layer="layer1" />
  <defs
     id="defs1" />
  <g
     inkscape:label="Layer 1"
     inkscape:groupmode="layer"
     id="layer1"
     transform="translate(-77.787494,-109.80208)">
    <path
       style="fill:#b4c0c9;fill-opacity:1;stroke-linecap:round"
       d="m 78.97522,109.9436 a 0.75,0.75 0 0 0 -1.04687,0.16992 0.75,0.75 0 0 0 0.17187,1.04688 c 0,0 1.42953,1.02984 2.85938,2.07031 0.71492,0.52023 1.42997,1.04329 1.96289,1.43945 0.0522,0.0388 0.0764,0.0575 0.125,0.0937 -0.0489,0.0365 -0.0724,0.0566 -0.125,0.0957 -0.53292,0.39616 -1.24797,0.91922 -1.96289,1.43945 -1.42985,1.04047 -2.85938,2.07032 -2.85938,2.07032 a 0.75,0.75 0 0 0 -0.17187,1.04687 0.75,0.75 0 0 0 1.04687,0.16992 c 0,0 1.43319,-1.03073 2.86719,-2.07422 0.717,-0.52174 1.43358,-1.04702 1.97461,-1.44921 0.27052,-0.2011 0.49774,-0.3707 0.66211,-0.49805 0.0822,-0.0637 0.14702,-0.11512 0.20312,-0.16211 0.0281,-0.0235 0.0516,-0.0451 0.0859,-0.0781 0.0172,-0.0165 0.0373,-0.0336 0.0723,-0.0762 0.0175,-0.0213 0.0395,-0.0473 0.0723,-0.10352 0.0164,-0.0281 0.0565,-0.11866 0.0566,-0.11914 1.8e-4,-4.7e-4 0.0449,-0.25941 0.0449,-0.25976 0,-3.5e-4 -0.0447,-0.26125 -0.0449,-0.26172 -1.7e-4,-4.8e-4 -0.0403,-0.0911 -0.0566,-0.11914 -0.0327,-0.0562 -0.0547,-0.0823 -0.0723,-0.10352 -0.035,-0.0425 -0.0551,-0.0597 -0.0723,-0.0762 -0.0343,-0.033 -0.0579,-0.0546 -0.0859,-0.0781 -0.0561,-0.047 -0.12093,-0.0984 -0.20312,-0.16211 -0.16437,-0.12735 -0.39159,-0.29695 -0.66211,-0.49804 -0.54103,-0.40219 -1.25761,-0.92748 -1.97461,-1.44922 -1.434,-1.04349 -2.86719,-2.07422 -2.86719,-2.07422 z"
       id="path32-8" />
  </g>
</svg>
