<?xml version="1.0" encoding="UTF-8" standalone="no"?>
<!-- Created with Inkscape (http://www.inkscape.org/) -->

<svg
   width="11.016676mm"
   height="12.581mm"
   viewBox="0 0 11.016676 12.581"
   version="1.1"
   id="svg1"
   inkscape:version="1.4 (1:1.4+202410161351+e7c3feb100)"
   sodipodi:docname="IntensityIcon.svg"
   xmlns:inkscape="http://www.inkscape.org/namespaces/inkscape"
   xmlns:sodipodi="http://sodipodi.sourceforge.net/DTD/sodipodi-0.dtd"
   xmlns="http://www.w3.org/2000/svg"
   xmlns:svg="http://www.w3.org/2000/svg">
  <sodipodi:namedview
     id="namedview1"
     pagecolor="#ffffff"
     bordercolor="#000000"
     borderopacity="0.25"
     inkscape:showpageshadow="2"
     inkscape:pageopacity="0.0"
     inkscape:pagecheckerboard="true"
     inkscape:deskcolor="#d1d1d1"
     inkscape:document-units="mm"
     showborder="true"
     inkscape:zoom="0.77949635"
     inkscape:cx="-200.12922"
     inkscape:cy="527.90497"
     inkscape:window-width="1982"
     inkscape:window-height="1083"
     inkscape:window-x="0"
     inkscape:window-y="0"
     inkscape:window-maximized="1"
     inkscape:current-layer="layer1" />
  <defs
     id="defs1" />
  <g
     inkscape:label="Layer 1"
     inkscape:groupmode="layer"
     id="layer1"
     transform="translate(-157.69167,-8.7312491)">
    <g
       id="g37"
       transform="matrix(0.68164456,0,0,0.68164456,-72.42298,-55.353432)">
      <path
         id="path15"
         style="fill:#97a2aa;stroke-linecap:round"
         d="m 343.78788,97.04512 c -0.56719,0.01987 -4.32132,1.61886 -4.32132,1.61886 -0.37784,0.16898 -0.54736,0.612102 -0.37878,0.99012 0.16879,0.3792 0.61347,0.5492 0.99218,0.3793 0,0 3.41432,-1.418132 3.64319,-1.423164 0.22887,-0.005 1.44305,0.306763 1.38338,0.519865 -0.0597,0.213102 -1.01332,2.875639 -1.53427,4.356319 -0.25118,0.72463 -0.001,1.52838 0.6165,1.98283 1.27402,0.78222 3.64286,2.13544 3.81604,2.26911 0.17318,0.13367 -2.06525,3.60133 -2.06525,3.60133 -0.21089,0.35647 -0.0929,0.8164 0.26355,1.02733 0.35647,0.21089 0.8164,0.0929 1.02733,-0.26355 0,0 2.89515,-4.3735 2.76118,-4.88374 -0.13397,-0.51024 -3.29654,-1.96591 -3.21788,-2.34755 0.0787,-0.38165 0.69902,-2.70395 0.86017,-3.08967 0.16115,-0.38572 0.66826,1.11712 0.97256,1.33751 0.3043,0.22039 4.30526,0.58305 4.30526,0.58305 0.41105,0.0484 0.78363,-0.24529 0.8325,-0.65629 0.0481,-0.41158 -0.24674,-0.78415 -0.65835,-0.83199 0,0 -3.227,-0.28787 -3.40032,-0.42169 -0.17332,-0.13382 -1.3203,-2.705374 -1.3203,-2.705374 -0.27892,-0.529596 -0.83251,-0.780947 -1.36736,-0.990633 0,0 -2.64282,-1.071842 -3.21001,-1.051973 z"
         sodipodi:nodetypes="zccczzcczcsczzzzccczccz" />
      <circle
         style="opacity:1;fill:#97a2aa;fill-opacity:1;stroke:none;stroke-width:1.95;stroke-linecap:round;stroke-dasharray:none;stroke-opacity:1"
         id="path20"
         cx="348.37814"
         cy="95.858925"
         r="1.8441188" />
      <path
         id="path35"
         style="fill:#97a2aa;fill-opacity:1;stroke-linecap:round"
         d="m 343.31749,105.3106 c -0.0591,-0.10401 -1.07189,1.49875 -1.2454,1.62471 -0.17351,0.12596 -3.76721,0.16846 -3.76721,0.16846 -0.41342,0.018 -0.73416,0.3674 -0.71675,0.78084 0.018,0.41425 0.36866,0.73532 0.78289,0.71675 0,0 4.22505,-0.0647 4.46692,-0.19689 0.24187,-0.13215 1.67667,-2.08167 1.64382,-2.14767 -0.0328,-0.066 -0.48916,-0.29085 -0.68626,-0.41186 -0.19908,-0.14651 -0.41889,-0.43033 -0.47801,-0.53434 z"
         sodipodi:nodetypes="zzccczzcz" />
    </g>
  </g>
</svg>
