<?xml version="1.0" encoding="UTF-8" standalone="no"?>
<!-- Created with Inkscape (http://www.inkscape.org/) -->

<svg
   width="12.07627mm"
   height="12.07575mm"
   viewBox="0 0 12.07627 12.07575"
   version="1.1"
   id="svg1"
   inkscape:version="1.4 (1:1.4+202410161351+e7c3feb100)"
   sodipodi:docname="LargePlusIcon.svg"
   xmlns:inkscape="http://www.inkscape.org/namespaces/inkscape"
   xmlns:sodipodi="http://sodipodi.sourceforge.net/DTD/sodipodi-0.dtd"
   xmlns="http://www.w3.org/2000/svg"
   xmlns:svg="http://www.w3.org/2000/svg">
  <sodipodi:namedview
     id="namedview1"
     pagecolor="#ffffff"
     bordercolor="#000000"
     borderopacity="0.25"
     inkscape:showpageshadow="2"
     inkscape:pageopacity="0.0"
     inkscape:pagecheckerboard="true"
     inkscape:deskcolor="#d1d1d1"
     inkscape:document-units="mm"
     inkscape:zoom="0.77949635"
     inkscape:cx="21.808954"
     inkscape:cy="23.733273"
     inkscape:window-width="1982"
     inkscape:window-height="1083"
     inkscape:window-x="0"
     inkscape:window-y="0"
     inkscape:window-maximized="1"
     inkscape:current-layer="layer1" />
  <defs
     id="defs1" />
  <g
     inkscape:label="Layer 1"
     inkscape:groupmode="layer"
     id="layer1"
     transform="translate(-98.95416,-142.34583)">
    <path
       id="path31-9"
       style="fill:#b4c0c9;fill-opacity:1;stroke-linecap:round"
       d="m 104.99359,142.34583 a 0.95655501,0.95655501 0 0 0 -0.95705,0.95498 v 4.12688 h -4.12533 a 0.95655501,0.95655501 0 0 0 -0.95705,0.95705 0.95655501,0.95655501 0 0 0 0.95705,0.95498 h 4.12533 v 4.12688 a 0.95655501,0.95655501 0 0 0 0.95705,0.95498 0.95655501,0.95655501 0 0 0 0.95498,-0.95498 v -4.12688 h 4.12688 a 0.95655501,0.95655501 0 0 0 0.95498,-0.95498 0.95655501,0.95655501 0 0 0 -0.95498,-0.95705 h -4.12688 v -4.12688 a 0.95655501,0.95655501 0 0 0 -0.95498,-0.95498 z" />
  </g>
</svg>
