<?xml version="1.0" encoding="UTF-8" standalone="no"?>
<!-- Created with Inkscape (http://www.inkscape.org/) -->

<svg
   width="18.520832mm"
   height="18.520832mm"
   viewBox="0 0 18.520832 18.520832"
   version="1.1"
   id="svg1"
   inkscape:version="1.4 (1:1.4+202410161351+e7c3feb100)"
   xmlns:inkscape="http://www.inkscape.org/namespaces/inkscape"
   xmlns:sodipodi="http://sodipodi.sourceforge.net/DTD/sodipodi-0.dtd"
   xmlns="http://www.w3.org/2000/svg"
   xmlns:svg="http://www.w3.org/2000/svg">
  <sodipodi:namedview
     id="namedview1"
     pagecolor="#ffffff"
     bordercolor="#000000"
     borderopacity="0.25"
     inkscape:showpageshadow="2"
     inkscape:pageopacity="0.0"
     inkscape:pagecheckerboard="true"
     inkscape:deskcolor="#d1d1d1"
     inkscape:document-units="mm"
     inkscape:zoom="0.77949635"
     inkscape:cx="-30.789111"
     inkscape:cy="146.88972"
     inkscape:window-width="1982"
     inkscape:window-height="1083"
     inkscape:window-x="0"
     inkscape:window-y="0"
     inkscape:window-maximized="1"
     inkscape:current-layer="layer1" />
  <defs
     id="defs1" />
  <g
     inkscape:label="Layer 1"
     inkscape:groupmode="layer"
     id="layer1"
     transform="translate(-112.97708,-109.80208)">
    <g
       inkscape:label="Rendered Gears"
       transform="matrix(0.52411453,0,0,0.52411453,122.23738,119.06255)"
       id="g23"
       style="fill:#b4c0c9;fill-opacity:1;stroke:none;stroke-opacity:1">
      <path
         id="path22"
         style="fill:#b4c0c9;fill-opacity:1;stroke:none;stroke-width:0.264583;stroke-opacity:1"
         d="m -0.78422311,-17.668787 -1.19424239,2.639115 -0.09095,0.935344 0.2340943,1.595251 -2.8246338,0.75706 -0.5947958,-1.498617 -0.5467366,-0.764811 -2.3538615,-1.688269 -1.3580567,0.784448 0.2847372,2.882512 0.3891235,0.855762 1.0004558,1.2645219 -2.0675741,2.067574 -1.2645228,-1.0004557 -0.855762,-0.3891236 -2.882511,-0.2847371 -0.783932,1.3580566 1.687754,2.3538615 0.764811,0.5467367 1.498616,0.5947957 -0.756543,2.824117 -1.595251,-0.2340942 -0.93586,0.09095 -2.638599,1.19475914 v 1.56837972 l 2.638599,1.19424234 0.93586,0.09095 1.595251,-0.2340942 0.756543,2.8246338 -1.498616,0.5947957 -0.764811,0.5462199 -1.687754,2.3543783 0.783932,1.3580566 2.882512,-0.2852539 0.855762,-0.3886068 1.2645218,-1.0009725 2.0675741,2.0680909 -1.0004558,1.2640052 -0.3891235,0.855762 -0.2847372,2.883028 1.3580567,0.783932 2.3538615,-1.687753 0.5467366,-0.764811 0.5947958,-1.498616 2.8246338,0.756543 -0.2340943,1.595251 0.09095,0.93586 1.19424239,2.638599 h 1.56837972 l 1.19475909,-2.638599 0.09095,-0.93586 -0.234611,-1.595251 2.8246338,-0.756543 0.5947958,1.498616 0.5467366,0.764811 2.3538615,1.687753 L 9.5133396,14.909586 9.2286024,12.026558 8.8394789,11.170796 7.8390231,9.9067908 9.9065972,7.8386999 11.171119,8.8396724 12.026881,9.2282792 14.909393,9.5135331 15.693841,8.1554765 14.005572,5.8010982 13.240761,5.2548783 11.742144,4.6600826 l 0.756543,-2.8246338 1.595252,0.2340942 0.93586,-0.09095 2.639115,-1.19424234 v -1.56837972 l -2.639115,-1.19475914 -0.93586,-0.09095 -1.595252,0.2340942 -0.756543,-2.824117 1.498617,-0.5947957 0.764811,-0.5467367 1.688269,-2.3538615 -0.784448,-1.3580566 -2.882512,0.2847371 -0.855762,0.3891236 -1.2645218,1.0004557 -2.0675741,-2.067574 1.0004558,-1.2645219 0.3891235,-0.855762 0.2847372,-2.882512 -1.3580567,-0.784448 -2.3538615,1.688269 -0.5467366,0.764811 -0.5947958,1.498617 -2.8246338,-0.75706 0.234611,-1.595251 -0.09095,-0.935344 -1.19475909,-2.639115 z M 2.2513021e-4,-9.2605147 A 9.260417,9.260417 0 0 1 9.2606418,-9.8079427e-5 9.260417,9.260417 0 0 1 2.2513021e-4,9.2603186 9.260417,9.260417 0 0 1 -9.2601915,-9.8079427e-5 9.260417,9.260417 0 0 1 2.2513021e-4,-9.2605147 Z" />
    </g>
  </g>
</svg>
