<?xml version="1.0" encoding="UTF-8" standalone="no"?>
<!-- Created with Inkscape (http://www.inkscape.org/) -->

<svg
   width="9.4691906mm"
   height="9.4686699mm"
   viewBox="0 0 9.4691906 9.4686699"
   version="1.1"
   id="svg1"
   inkscape:version="1.4 (1:1.4+202410161351+e7c3feb100)"
   sodipodi:docname="SmallPlusIcon.svg"
   xmlns:inkscape="http://www.inkscape.org/namespaces/inkscape"
   xmlns:sodipodi="http://sodipodi.sourceforge.net/DTD/sodipodi-0.dtd"
   xmlns="http://www.w3.org/2000/svg"
   xmlns:svg="http://www.w3.org/2000/svg">
  <sodipodi:namedview
     id="namedview1"
     pagecolor="#ffffff"
     bordercolor="#000000"
     borderopacity="0.25"
     inkscape:showpageshadow="2"
     inkscape:pageopacity="0.0"
     inkscape:pagecheckerboard="true"
     inkscape:deskcolor="#d1d1d1"
     inkscape:document-units="mm"
     inkscape:zoom="0.77949635"
     inkscape:cx="17.960315"
     inkscape:cy="18.601755"
     inkscape:window-width="1982"
     inkscape:window-height="1083"
     inkscape:window-x="0"
     inkscape:window-y="0"
     inkscape:window-maximized="1"
     inkscape:current-layer="layer1" />
  <defs
     id="defs1" />
  <g
     inkscape:label="Layer 1"
     inkscape:groupmode="layer"
     id="layer1"
     transform="translate(-100.27708,-143.66875)">
    <path
       id="path31"
       style="fill:#97a2aa;fill-opacity:1;stroke-linecap:round"
       d="m 105.01167,143.66875 a 0.75,0.75 0 0 0 -0.74982,0.74982 v 3.23443 h -3.23443 a 0.75,0.75 0 0 0 -0.75034,0.74982 0.75,0.75 0 0 0 0.75034,0.75035 h 3.23443 v 3.23442 a 0.75,0.75 0 0 0 0.74982,0.74983 0.75,0.75 0 0 0 0.74983,-0.74983 v -3.23442 h 3.23442 a 0.75,0.75 0 0 0 0.75035,-0.75035 0.75,0.75 0 0 0 -0.75035,-0.74982 h -3.23442 v -3.23443 a 0.75,0.75 0 0 0 -0.74983,-0.74982 z" />
  </g>
</svg>
