<?xml version="1.0" encoding="UTF-8" standalone="no"?>
<!-- Created with Inkscape (http://www.inkscape.org/) -->

<svg
   width="18.520838mm"
   height="14.55208mm"
   viewBox="0 0 18.520838 14.55208"
   version="1.1"
   id="svg1"
   inkscape:version="1.4 (1:1.4+202410161351+e7c3feb100)"
   sodipodi:docname="TerminalIcon.svg"
   xmlns:inkscape="http://www.inkscape.org/namespaces/inkscape"
   xmlns:sodipodi="http://sodipodi.sourceforge.net/DTD/sodipodi-0.dtd"
   xmlns="http://www.w3.org/2000/svg"
   xmlns:svg="http://www.w3.org/2000/svg">
  <sodipodi:namedview
     id="namedview1"
     pagecolor="#ffffff"
     bordercolor="#000000"
     borderopacity="0.25"
     inkscape:showpageshadow="2"
     inkscape:pageopacity="0.0"
     inkscape:pagecheckerboard="true"
     inkscape:deskcolor="#d1d1d1"
     inkscape:document-units="mm"
     inkscape:zoom="0.77949635"
     inkscape:cx="35.92063"
     inkscape:cy="27.581912"
     inkscape:window-width="1982"
     inkscape:window-height="1083"
     inkscape:window-x="0"
     inkscape:window-y="0"
     inkscape:window-maximized="1"
     inkscape:current-layer="layer1" />
  <defs
     id="defs1" />
  <g
     inkscape:label="Layer 1"
     inkscape:groupmode="layer"
     id="layer1"
     transform="translate(-95.514583,-141.2875)">
    <path
       id="rect25"
       style="fill:#b4c0c9;fill-opacity:1;stroke-width:0.813661"
       d="m 95.514583,141.2875 v 14.55208 H 114.03542 V 141.2875 Z m 1.72806,1.56631 a 0.4999935,0.4999935 0 0 1 0.29404,0.094 c 0,0 0.95576,0.68701 1.91203,1.38286 0.47814,0.34793 0.955407,0.69815 1.316197,0.96635 0.18039,0.1341 0.3317,0.24736 0.44131,0.33228 0.0548,0.0425 0.0995,0.0782 0.13695,0.10955 0.0187,0.0157 0.0334,0.0286 0.0563,0.0506 0.0115,0.011 0.0237,0.0223 0.047,0.0506 0.0116,0.0142 0.0273,0.0307 0.0491,0.0682 0.0109,0.0187 0.0366,0.0798 0.0367,0.0801 1e-4,3.2e-4 0.0315,0.17392 0.0315,0.17415 0,2.4e-4 -0.0314,0.17332 -0.0315,0.17364 -1e-4,3.2e-4 -0.0258,0.0614 -0.0367,0.0801 -0.0218,0.0375 -0.0374,0.054 -0.0491,0.0682 -0.0234,0.0283 -0.0356,0.0402 -0.047,0.0512 -0.0228,0.022 -0.0376,0.037 -0.0563,0.0527 -0.0374,0.0313 -0.0821,0.065 -0.13695,0.10748 -0.10961,0.0849 -0.26092,0.19766 -0.44131,0.33177 -0.36079,0.2682 -0.838057,0.61893 -1.316197,0.96686 -0.95627,0.69586 -1.91203,1.38286 -1.91203,1.38286 a 0.4999935,0.4999935 0 0 1 -0.69763,-0.11317 0.4999935,0.4999935 0 0 1 0.11369,-0.69763 c 0,0 0.95438,-0.68695 1.90789,-1.38079 0.47675,-0.34692 0.95307,-0.69649 1.308447,-0.96067 0.0345,-0.0256 0.0501,-0.0385 0.0822,-0.0625 -0.0321,-0.024 -0.0477,-0.0369 -0.0822,-0.0625 -0.355377,-0.26418 -0.831697,-0.61426 -1.308447,-0.96118 -0.95351,-0.69384 -1.90789,-1.37873 -1.90789,-1.37873 a 0.4999935,0.4999935 0 0 1 -0.11369,-0.69918 0.4999935,0.4999935 0 0 1 0.40359,-0.20722 z m 5.229137,6.16035 h 3.46129 a 0.5,0.5 0 0 1 0.49971,0.49971 0.5,0.5 0 0 1 -0.49971,0.50023 h -3.46129 a 0.5,0.5 0 0 1 -0.49971,-0.50023 0.5,0.5 0 0 1 0.49971,-0.49971 z" />
  </g>
</svg>
